<svg xmlns="http://www.w3.org/2000/svg" viewBox="0 0 364.53 154.92"><defs><style>.cls-1{fill:#fff;}</style></defs><title>inverse</title><g id="Layer_2" data-name="Layer 2"><g id="Layer_1-2" data-name="Layer 1"><path class="cls-1" d="M.55,57.64A13.87,13.87,0,0,1,0,53.8,13.62,13.62,0,0,1,.55,50a13.76,13.76,0,0,0,.55-3.87,13.87,13.87,0,0,0-.55-3.84A14.06,14.06,0,0,1,0,38.38a4.78,4.78,0,0,1,.65-2.29,9.79,9.79,0,0,1,1.21-1.78c.37-.4,1-1,1.76-1.81s1.32-1.23,1.75-1.58a8,8,0,0,1,1.79-1,4.85,4.85,0,0,1,2.28-.45,8.54,8.54,0,0,1,6.94,3.26,61.74,61.74,0,0,0,5.12,5.68,31.19,31.19,0,0,0,2.81,2.31,36.68,36.68,0,0,1,3.07,2.51q.95,1,2.61,2.94c1.1,1.32,1.94,2.27,2.51,2.84A27.06,27.06,0,0,1,35.11,52a31.19,31.19,0,0,0,2.31,2.81,28.93,28.93,0,0,0,3.09,2.72,22.76,22.76,0,0,1,2.69,2.31,6.86,6.86,0,0,0,4.27,2h.6a6,6,0,0,0,3.57-1.11,12.81,12.81,0,0,0,3.11-3.59,27.13,27.13,0,0,1,2.36-3.29,12.31,12.31,0,0,1,3-2,12.21,12.21,0,0,0,3-2,22.64,22.64,0,0,0,2.31-2.74,27.52,27.52,0,0,1,2.21-2.68c.54-.57,1.29-1.49,2.26-2.77A24.29,24.29,0,0,1,72.13,39l3.37-3.39c1.71-1.73,3-3,4-3.89Q81.28,30,85.44,30h1q4.26,0,6.38,2c1.3,1.2,2,3.3,2,6.28a4.5,4.5,0,0,1-.15.93,4.31,4.31,0,0,0-.15.93c0,.87.06,2.13.2,3.79s.2,2.89.2,3.69,0,2.14.1,3.82.1,2.94.1,3.81.07,2,.2,3.72.2,2.93.2,3.77q0,7.29.1,10.9c0,1-.07,2.48-.23,4.32s-.24,3.11-.27,3.82A38.48,38.48,0,0,1,94.71,86c-.22,1.84-.34,3.15-.37,3.91a16.05,16.05,0,0,0,.77,4,16.45,16.45,0,0,1,.78,4.12,22.17,22.17,0,0,1-.55,4,21,21,0,0,0-.5,3.92v.25a23.72,23.72,0,0,0,.65,4.07,29.86,29.86,0,0,1,.7,3.92,32.48,32.48,0,0,0,1.31,7.63,22,22,0,0,0,4,6.58,20.46,20.46,0,0,0,7.63,5.68c.1,0,.43.18,1,.45s.92.44,1.08.5l1,.46c.52.23.91.39,1.16.47l1.1.4a11.22,11.22,0,0,0,1.26.41c.35.08.74.19,1.18.32a7.52,7.52,0,0,0,1.31.3c.43.07.87.12,1.3.15a5.26,5.26,0,0,0,.86.06,24,24,0,0,0,2.81-.21c1.61-.16,2.71-.25,3.31-.25a33.23,33.23,0,0,0,3.62-.27c1.54-.19,2.6-.3,3.17-.33q1.4-.1,3.69-.48c1.52-.25,2.55-.41,3.09-.47.93-.14,2.09-.35,3.46-.63l2.31-.48c.77-.17,1.83-.43,3.17-.8l2.41-.66a11.37,11.37,0,0,1,3.16-.3H155a1.72,1.72,0,0,1,.35,0,17.62,17.62,0,0,0,3.87-.35,29.74,29.74,0,0,0,3.29-1.18,22.51,22.51,0,0,1,4-1.28c1-.13,2.35-.28,4.14-.43l3.64-.32q1.22-.15,7.84-.41,6.44-.49,7.84-.5a19.23,19.23,0,0,0,3.81-.6,18,18,0,0,1,3.77-.55h.2a13.46,13.46,0,0,1,4,1,19.41,19.41,0,0,0,3.74,1.13c1.2.1,2,.18,2.54.25a8.47,8.47,0,0,1,1.88.55,4.65,4.65,0,0,1,1.86,1.26,9.35,9.35,0,0,1,2.51,5.92,5.42,5.42,0,0,1-.05.66,9.11,9.11,0,0,1-3.62,6.18,7.74,7.74,0,0,1-5.32,1.7c-.4,0-.82,0-1.26,0a4.68,4.68,0,0,0-.7-.05c-.74,0-1.68.12-2.81.25a18.93,18.93,0,0,1-3,.21h-.35a29.54,29.54,0,0,1-3.39-.48,20.14,20.14,0,0,0-3.49-.43,17.46,17.46,0,0,0-3.57.53,23,23,0,0,1-3.36.58H183a16.34,16.34,0,0,1-3.06-.41,16.39,16.39,0,0,0-2.91-.35,3.49,3.49,0,0,0-.61,0A11.35,11.35,0,0,0,173,146.8a16.23,16.23,0,0,1-3.22,1.23,7.91,7.91,0,0,1-1.35.1,20.12,20.12,0,0,1-2.26-.15,11.2,11.2,0,0,0-3.17,0c-.87.2-2,.55-3.41,1s-2.4.8-3,.93l-2.84,1a35.25,35.25,0,0,1-4.24,1.25c-.3.07-2.75.42-7.33,1.06-.47,0-1.59.17-3.37.42s-3.25.41-4.42.48c-.33,0-1.46.18-3.37.43a36.64,36.64,0,0,1-4.47.38,80.85,80.85,0,0,1-8.84-.31,14.61,14.61,0,0,1-3.61-.9,29.4,29.4,0,0,0-3-1,21.34,21.34,0,0,0-3.34-.26,11.44,11.44,0,0,1-3.44-.45,54.49,54.49,0,0,1-6.28-2.76,40.55,40.55,0,0,1-5.67-4,12.77,12.77,0,0,1-1.59-1.41c-.52-.53-1.09-1.17-1.73-1.9s-1.1-1.28-1.41-1.61A44.44,44.44,0,0,1,84.24,135a35.76,35.76,0,0,1-2.46-5.87c-.17-.41-.51-1.19-1-2.37s-.89-2.17-1.18-3a21.25,21.25,0,0,1-.68-2.51c-.13-1.07-.26-2.48-.4-4.22a11.71,11.71,0,0,0-.75-2.29,8,8,0,0,1-.7-2.48v-1.71c0-.94,0-2.08,0-3.42.06-2.21.08-3.68,0-4.42s0-1.52,0-2.36,0-1.76,0-2.79,0-1.79,0-2.33c0-.84.06-2.09.2-3.77s.2-2.93.2-3.77.06-2.46.2-4.47.2-3.49.2-4.47a35.86,35.86,0,0,0-.4-4.37,35.67,35.67,0,0,1-.4-4.47q0-3.47-2.57-4.32l-1.4-.15a2.2,2.2,0,0,0-1.26.4,10.71,10.71,0,0,0-1.13.76c-.25.2-.61.52-1.08,1a9.8,9.8,0,0,1-2.48,1.68,10.37,10.37,0,0,0-2.44,1.59,37.87,37.87,0,0,0-3.17,3.86,33,33,0,0,1-3.21,3.87A44.24,44.24,0,0,1,53.7,83a9.79,9.79,0,0,1-6,2.16,6.48,6.48,0,0,1-1-.17,4.43,4.43,0,0,1-1-.43l-.86-.5c-.22-.14-.53-.35-.93-.65a9.51,9.51,0,0,0-.85-.61,3.63,3.63,0,0,0-1.56-.45,2.83,2.83,0,0,1-1.51-.5,15.81,15.81,0,0,1-2.18-3.17,15.54,15.54,0,0,0-2.14-3.11,21.36,21.36,0,0,0-3.49-2.46,20.73,20.73,0,0,1-3.54-2.56,9.41,9.41,0,0,1-1.33-1.69c-.52-.78-.9-1.31-1.13-1.58A4.43,4.43,0,0,0,23.16,66a5.24,5.24,0,0,0-2.06.46c-2.35.94-3.52,2.37-3.52,4.32a11.43,11.43,0,0,0,.63,3.71,11.53,11.53,0,0,1,.63,3.72,14.49,14.49,0,0,1-.48,3.69,14.62,14.62,0,0,0-.48,3.7c0,1.27,0,2.53-.05,3.79s0,2.5,0,3.74v7.38a14,14,0,0,0,.53,3.75,14,14,0,0,1,.53,3.79,12.36,12.36,0,0,1-.58,3.69,12,12,0,0,0-.58,3.69c0,3-.58,5.14-1.76,6.38a9.26,9.26,0,0,1-6.28,3h-.3c-2,0-4-1-6.18-3.07q-2.06-2.05-2.06-6.38V107.6c0-1.28,0-2.55-.05-3.82S1,101.22,1,99.91,1,97.37.85,96.09.7,93.55.7,92.28s0-2.6-.15-3.87S.4,85.86.4,84.59s0-2.55.15-3.84.15-2.59.15-3.9S.74,74.3.8,73s.1-2.58.1-3.89,0-2.54.1-3.79.1-2.52.1-3.8A14.06,14.06,0,0,0,.55,57.64Z"/><path class="cls-1" d="M111.36,64.42V60.61c.1-.37.28-1,.53-1.81a14.91,14.91,0,0,0,.48-2,34,34,0,0,1,1.36-3.73l.45-1c.23-.52.4-.88.5-1.07s.25-.48.45-.85a9.77,9.77,0,0,1,.6-1,8.9,8.9,0,0,1,.66-.83,23.35,23.35,0,0,1,3.51-4.29,27.71,27.71,0,0,1,4.22-3.5c2.75-1.63,4.39-2.55,4.93-2.78l3.81-.93a14.22,14.22,0,0,1,3.82-.78,28.53,28.53,0,0,1,3.77-.39c.94,0,2.24.07,3.92.21q.15,0,3.81.87A34.74,34.74,0,0,1,151.9,38a24.28,24.28,0,0,1,4.72,2.85q3.57,2.23,4.62,3.09a23.82,23.82,0,0,1,3.22,4.45l1,1.43c.45.66.84,1.24,1.15,1.74a11.73,11.73,0,0,1,.83,1.56,17.56,17.56,0,0,1,.91,3.73,17,17,0,0,0,.47,1.82,13.45,13.45,0,0,1,.48,2,26,26,0,0,1,.4,3.83,29.88,29.88,0,0,1-.4,3.91,37.62,37.62,0,0,1-.7,3.71,15.21,15.21,0,0,1-1.26,3.76,19.93,19.93,0,0,1-2.86,4.77A23.41,23.41,0,0,1,160.94,85c-.23.23-.64.64-1.23,1.2s-1.09,1.05-1.53,1.43a10.72,10.72,0,0,1-1.35,1,32.79,32.79,0,0,1-5.13,2.51c-.33.1-.89.32-1.66.65a10.1,10.1,0,0,1-1.85.66,37.56,37.56,0,0,1-3.82.74,26.53,26.53,0,0,1-3.92.2l-3.77-.3a18.27,18.27,0,0,1-3.82-.55,15.77,15.77,0,0,1-3.81-1.1q-1-.41-4.93-2.81a42,42,0,0,1-4-3.67,24.79,24.79,0,0,1-3.61-4.31,40.24,40.24,0,0,1-2.76-4.87,33.66,33.66,0,0,1-1.36-3.77,21.61,21.61,0,0,1-.6-3.71A17.93,17.93,0,0,1,111.36,64.42Zm3.72,40.51a6.86,6.86,0,0,0,1.71,4.83,6.94,6.94,0,0,0,4.87,1.65,25.8,25.8,0,0,1,2.76.15,24.72,24.72,0,0,0,2.87.16c.93,0,1.9,0,2.89,0s2-.06,3-.06h23c1,0,2,0,2.94.06s1.88,0,2.79,0a6.61,6.61,0,0,0,6.48-6.79q0-3.25-1.71-4.62a6,6,0,0,0-4.77-2.06c-.91,0-1.84,0-2.79,0s-1.93,0-2.94,0a27.83,27.83,0,0,0-2.86.15,26.63,26.63,0,0,1-5.83,0,28,28,0,0,0-2.86-.15c-.94,0-1.89,0-2.87,0s-1.92,0-2.86,0-1.83,0-2.79.1-1.91.1-2.89.1-2,0-3-.1-2-.1-2.89-.1-1.93,0-2.87,0-1.85,0-2.76,0a6.28,6.28,0,0,0-4.87,1.86A6.39,6.39,0,0,0,115.08,104.93Zm7.08-40.48a14.21,14.21,0,0,0,.81,4.73,14.11,14.11,0,0,0,2,4.33,15.43,15.43,0,0,0,2.81,3.83,17.75,17.75,0,0,0,3.67,3,18.15,18.15,0,0,0,4.32,1.72,27,27,0,0,0,4.72,1,5.4,5.4,0,0,0,1.49-.2l1.87-.5,1.34-.36a23.91,23.91,0,0,0,4.61-1.51,7.33,7.33,0,0,0,1-.66,8.49,8.49,0,0,0,.8-.68l.93-1c.43-.46.7-.73.8-.83a28.18,28.18,0,0,0,2.91-3.83c.13-.24.36-.66.7-1.26s.61-1.13.82-1.59a8,8,0,0,0,.53-1.38,19.61,19.61,0,0,0,.5-4.84,17.69,17.69,0,0,0-2.46-9.16c-.17-.3-.38-.64-.63-1s-.47-.68-.67-.93-.47-.58-.81-1l-.75-.91a14.88,14.88,0,0,0-3.82-2.87A18.89,18.89,0,0,0,145.12,47a20.58,20.58,0,0,0-4.67-.91,26.44,26.44,0,0,0-4.72.61,28.82,28.82,0,0,0-4.42,1.86,22.42,22.42,0,0,0-3.72,3,17.66,17.66,0,0,0-2.86,3.73A33.66,33.66,0,0,0,123,59.81,20.7,20.7,0,0,0,122.16,64.45Z"/><path class="cls-1" d="M182,38.65a11.16,11.16,0,0,1,.53-2,19.64,19.64,0,0,1,.88-1.83c0-.07.14-.34.32-.83s.31-.8.38-1,.2-.43.4-.83a7,7,0,0,1,.5-.88l.51-.68a3.53,3.53,0,0,1,.62-.65,2.72,2.72,0,0,1,.73-.4,7,7,0,0,1,2.77-.56,10.38,10.38,0,0,1,3.71.76,13.07,13.07,0,0,1,3,2A19.1,19.1,0,0,1,198.69,34c.49.59,1.27,1.53,2.34,2.84.63.74,1.46,1.84,2.48,3.32s1.77,2.49,2.24,3.06L211,49.28a25.64,25.64,0,0,0,3,2.63,22.83,22.83,0,0,1,3.06,2.74l5.08,6,1,1.26a8,8,0,0,0,1,1,6.67,6.67,0,0,0,1.36.9,5.84,5.84,0,0,0,2.66.66,8.05,8.05,0,0,0,4.22-1.36,27.69,27.69,0,0,0,5.68-5.17,21.9,21.9,0,0,1,2.74-2.44A19.17,19.17,0,0,0,243.52,53q.71-.8,2.49-2.58t2.64-2.79a19.6,19.6,0,0,0,2-3.06,19.33,19.33,0,0,1,2.09-3.12c.53-.63,1.38-1.52,2.53-2.66s2-2,2.59-2.66a1.2,1.2,0,0,0,.2-.35,1.39,1.39,0,0,1,.2-.36,33.88,33.88,0,0,1,3.12-3c1.4-1.22,2.32-2.05,2.76-2.48s1.34-1.43,2.51-2.79a31.08,31.08,0,0,1,2.86-3c.41-.33,1.3-1.14,2.69-2.41s2.49-2.21,3.29-2.81c.64-.47,1.32-1,2.06-1.46s1.55-1,2.44-1.61l2.08-1.35a31.2,31.2,0,0,1,3.72-1.81c1.64-.7,2.8-1.24,3.47-1.61q1.45-.7,6.07-3.16c.51-.2,1.45-.66,2.84-1.36s2.5-1.22,3.34-1.56a28.16,28.16,0,0,0,3-1.4,17.33,17.33,0,0,1,3.41-1.46c.81-.23,2-.49,3.67-.78S314.27.9,314.7.8a24.46,24.46,0,0,1,3.7-.3c1.62,0,2.68-.06,3.18-.1a67.41,67.41,0,0,1,7.84-.4q3.91,0,7.89.3c.77.07,1.57.18,2.41.33s1.81.35,2.91.6l2.41.53c1.17.23,3.72.89,7.64,2,1.1.3,1.91.52,2.41.68a8.27,8.27,0,0,1,1.86.92A5.06,5.06,0,0,1,358.61,7a7,7,0,0,1,.75,3.27,12,12,0,0,1-.65,3.66c-.71,2.62-1.63,4.29-2.77,5a3,3,0,0,1-.65.42,3.41,3.41,0,0,1-.8.28l-.73.18a4.75,4.75,0,0,1-.88.1l-.8,0h-1.71a3,3,0,0,1-.76-.1,8.61,8.61,0,0,1-.87-.28,6.18,6.18,0,0,0-.73-.22,70.66,70.66,0,0,0-8.09-1.56,62.85,62.85,0,0,0-8.34-.4h-.4a38.43,38.43,0,0,0-4.17.3c-2,.27-3.2.42-3.67.45s-1.65.14-3.24.2a18.45,18.45,0,0,0-3.54.41,65.82,65.82,0,0,0-6.83,1.65q-1.16.41-6.23,2.87c-.74.3-2.76,1.35-6.08,3.16l-2.84,1.38A32.76,32.76,0,0,0,291,29.74a21.24,21.24,0,0,0-2.88,2.38c-1.19,1.13-2,1.87-2.49,2.24L283.23,36a25.79,25.79,0,0,0-3.29,2.49c-.53.47-1.06,1-1.58,1.53s-1.11,1.2-1.78,1.93l-1.51,1.66a23.81,23.81,0,0,1-3.37,4.32c-.47.5-1.29,1.27-2.48,2.29a25,25,0,0,0-2.59,2.48q-.81.91-2.46,2.46c-1.11,1-1.89,1.83-2.36,2.37s-1.18,1.36-2.14,2.58-1.71,2.14-2.28,2.74L252.77,68c-.51.61-1.22,1.52-2.14,2.74s-1.65,2.12-2.18,2.69a23,23,0,0,0-1.61,1.91c-.54.7-1.13,1.5-1.78,2.41s-1.17,1.59-1.54,2.06a26.37,26.37,0,0,0-3.91,6.93,34.2,34.2,0,0,0-2,6.13c0,.23-.17,1.19-.4,2.86a25.88,25.88,0,0,0-.31,3.42v.35a17.06,17.06,0,0,0,.48,3.39,22.91,22.91,0,0,1,.53,3.19v.3a20.22,20.22,0,0,1-.35,3.22,30.59,30.59,0,0,0-.46,3.16c0,.13,0,.64,0,1.51s0,1.45,0,1.76-.06.77-.13,1.43a6.33,6.33,0,0,1-.37,1.68,7.38,7.38,0,0,1-.68,1.31,7.94,7.94,0,0,1-3.27,2.71,9,9,0,0,1-3.91.9h-.41c-2.61-.1-4.73-1.64-6.38-4.62a17.4,17.4,0,0,1-2.16-5.17c-.3-3.55-.45-5.8-.45-6.73l.2-7.24c0-.57.17-1.65.41-3.26a26.29,26.29,0,0,0,.25-3.12v-.6a22.41,22.41,0,0,0-1.66-6.93,23.82,23.82,0,0,0-3.42-6.88,19.71,19.71,0,0,0-2.76-3c-1.31-1.2-2.16-2-2.56-2.46-.6-.7-1.45-1.71-2.54-3s-1.71-2.1-1.88-2.33c-.5-.57-1.29-1.43-2.36-2.56s-1.86-2-2.36-2.57-1.38-1.44-2.52-2.51-2-1.89-2.46-2.46a26.09,26.09,0,0,1-2-2.81,23,23,0,0,0-2-2.82c-.5-.56-1.33-1.38-2.51-2.46s-2-1.89-2.51-2.46a22.94,22.94,0,0,1-4.52-7.33A3.22,3.22,0,0,1,182,38.65Z"/><path class="cls-1" d="M270.15,118.09a9.12,9.12,0,0,1-.45-2.81,9.55,9.55,0,0,1,.95-4.07l3.31-6.38c1.34-2.81,2.4-5,3.17-6.48.57-1.14,1.17-2.23,1.81-3.27s1.2-2,1.71-3l3.06-6.48c.84-1.57,1.91-3.7,3.21-6.37a34.68,34.68,0,0,1,1.79-3,30.74,30.74,0,0,0,1.83-3.24c.6-1.14,1.16-2.28,1.66-3.42s1-2.16,1.41-3.06,1-2.11,1.5-3.22,1-2.19,1.56-3.26l1.13-2.24c.28-.55.59-1.19.93-1.91s.72-1.5,1.15-2.33q2.92-5.53,3.27-6.28c.57-1.11,1.1-2.2,1.58-3.29s1-2.19,1.53-3.29,1.17-2.32,1.69-3.44,1-2.1,1.38-2.94a8.81,8.81,0,0,1,5.88-4.62,8.26,8.26,0,0,1,2.56-.41,10.15,10.15,0,0,1,3.61.71,8.4,8.4,0,0,1,4.42,4.32c.34.7.8,1.77,1.39,3.21s1,2.5,1.38,3.17.9,1.67,1.7,3S331.65,46,332,46.72s.79,1.79,1.36,3.26,1,2.55,1.31,3.22a27.5,27.5,0,0,0,1.73,2.91,25.8,25.8,0,0,1,1.78,3.06s1.06,2.23,3.07,6.58q1.54,2.86,3.21,6.48,2.87,5.38,3.37,6.48L351,85.19a25.3,25.3,0,0,1,1.36,3.49,30,30,0,0,0,1.2,3.29,33.63,33.63,0,0,0,1.94,3.08c.92,1.35,1.58,2.38,2,3.08a28.32,28.32,0,0,1,1.23,3.26,21.44,21.44,0,0,0,1.43,3.51q1,2.16,3.32,6.47a10.9,10.9,0,0,1,1,4.39,7.45,7.45,0,0,1-.35,2.32,8.88,8.88,0,0,1-4.52,5.29,11.06,11.06,0,0,1-4,.6,8.15,8.15,0,0,1-4.49-1.33,9.06,9.06,0,0,1-3.24-3.61l-3.27-6.7a5.65,5.65,0,0,0-2.48-2.62,15.15,15.15,0,0,0-4.75-1.21,6.72,6.72,0,0,0-1.76-.2,14.42,14.42,0,0,0-1.66.1c-1.47.14-2.59.2-3.36.2-1.18,0-2.33,0-3.47-.15s-2.28-.15-3.42-.15h-6.88l-2.38,0-2,.08-2.46.1c-1.14,0-2.28,0-3.41,0s-2.28,0-3.42,0a13.57,13.57,0,0,1-2.61-.25,16.15,16.15,0,0,0-1.81-.28,13.54,13.54,0,0,0-2.46.43l-1.76.66a5.17,5.17,0,0,0-1.31.75l-.85.66a11.5,11.5,0,0,0-1,1.13l-1.23,1.44a9.94,9.94,0,0,0-1.51,2,13.13,13.13,0,0,0-.78,2,15.74,15.74,0,0,1-1,2.42,8.69,8.69,0,0,1-3.39,3.52,9,9,0,0,1-4.64,1.31,4,4,0,0,1-.78-.07,4.85,4.85,0,0,1-.8-.25l-.71-.3-.8-.38-.73-.35C272.32,121.41,270.72,119.84,270.15,118.09ZM302.55,87a2.53,2.53,0,0,0,.22,2.66A2.68,2.68,0,0,0,305.11,91q1.9,0,3.84-.18c1.29-.11,2.59-.17,3.89-.17h15.43A3.53,3.53,0,0,0,331.33,89a3.23,3.23,0,0,0,.6-1.81,3.57,3.57,0,0,0-.35-1.5,5.11,5.11,0,0,0-.65-.83,3,3,0,0,1-.6-.93,29.91,29.91,0,0,1-1.56-3.67,35.87,35.87,0,0,0-1.51-3.62,37.54,37.54,0,0,0-2-3.44,38.52,38.52,0,0,1-2-3.44,19.8,19.8,0,0,1-1.05-2.66,21.71,21.71,0,0,0-.83-2.26,11.33,11.33,0,0,0-1.53-2.31A3.42,3.42,0,0,0,317.31,61a2.26,2.26,0,0,0-2,1.46,1.77,1.77,0,0,0-.21.6,2,2,0,0,1-.2.65c-1.47,3-2.68,5.35-3.61,7.09a24.78,24.78,0,0,1-2.11,3.44,22.5,22.5,0,0,0-2.11,3.44,18.91,18.91,0,0,0-1.51,3.77,20.91,20.91,0,0,1-1.46,3.76,2.29,2.29,0,0,1-.77.88A2.31,2.31,0,0,0,302.55,87Z"/></g></g></svg>